<?xml version="1.0" standalone="no"?>
<!DOCTYPE svg PUBLIC "-//W3C//DTD SVG 20010904//EN"
 "http://www.w3.org/TR/2001/REC-SVG-20010904/DTD/svg10.dtd">
<svg version="1.0" xmlns="http://www.w3.org/2000/svg"
 width="599.000000pt" height="599.000000pt" viewBox="0 0 599.000000 599.000000"
 preserveAspectRatio="xMidYMid meet">

<g transform="translate(0.000000,599.000000) scale(0.100000,-0.100000)"
fill="#000000" stroke="none">
<path d="M0 2995 l0 -2995 2995 0 2995 0 0 2995 0 2995 -2995 0 -2995 0 0
-2995z m3311 1886 c18 -22 19 -49 19 -717 l0 -693 -22 -24 c-18 -19 -120 -53
-499 -166 -518 -154 -513 -153 -539 -92 -7 18 -10 226 -8 683 3 642 3 658 23
677 14 13 150 55 428 130 225 61 413 111 417 111 8 0 22 -42 15 -48 -2 -3
-188 -55 -412 -116 l-408 -111 -3 -658 c-2 -522 0 -657 10 -657 7 1 220 63
473 139 l460 139 3 686 2 686 -570 0 -570 0 0 -700 0 -700 40 0 c38 0 40 -2
40 -30 0 -26 -3 -30 -29 -30 -41 0 -90 19 -101 40 -14 27 -13 1415 1 1441 6
11 20 24 32 29 12 5 279 8 600 7 l579 -2 19 -24z m-730 -692 l104 -122 3 104
c2 84 0 106 -13 115 -24 18 -18 24 25 24 22 0 40 -4 40 -10 0 -5 -7 -10 -15
-10 -13 0 -15 -22 -15 -137 l0 -138 -48 50 c-26 28 -77 84 -114 125 l-67 75
-1 -107 c0 -90 3 -108 15 -108 8 0 15 -4 15 -10 0 -5 -18 -10 -40 -10 -22 0
-40 5 -40 10 0 6 7 10 15 10 13 0 15 20 15 120 0 100 -2 120 -15 120 -8 0 -15
5 -15 10 0 6 10 10 23 10 18 0 50 -31 128 -121z m379 91 c0 -16 -4 -30 -10
-30 -5 0 -10 9 -10 20 0 19 -5 21 -62 18 l-63 -3 -3 -52 -3 -53 65 0 c88 0 95
-18 9 -22 l-68 -3 -3 -52 c-3 -48 -1 -53 17 -53 12 0 21 -4 21 -10 0 -5 -21
-10 -47 -10 -42 1 -46 2 -30 14 14 11 17 30 17 130 0 98 -2 116 -16 116 -8 0
-12 5 -9 10 3 6 48 10 101 10 l94 0 0 -30z m155 18 c25 -11 37 -58 15 -58 -5
0 -10 7 -10 15 0 9 -11 20 -25 27 -35 16 -77 -13 -73 -50 2 -22 12 -30 53 -45
28 -10 58 -27 68 -38 41 -49 3 -119 -64 -119 -59 0 -89 18 -89 52 0 17 4 27
10 23 6 -3 10 -13 10 -20 0 -36 79 -46 110 -15 38 38 19 72 -55 98 -58 21 -79
51 -64 91 18 49 61 64 114 39z m-544 -377 c50 -50 35 -124 -30 -151 -83 -34
-166 66 -115 138 34 50 102 55 145 13z m-881 -856 c0 -46 17 -62 27 -25 4 13
14 20 31 20 l25 0 -27 -27 -27 -26 28 -29 c32 -33 11 -39 -24 -6 -25 23 -44
18 -23 -7 11 -13 8 -15 -21 -14 -19 0 -28 3 -21 6 8 3 12 27 12 69 0 35 -2 64
-4 64 -28 0 -36 -16 -36 -76 0 -35 -4 -64 -9 -64 -5 0 -27 24 -48 52 l-38 53
-3 -38 c-2 -21 2 -45 9 -53 9 -12 7 -14 -17 -14 l-29 0 0 75 c0 94 16 99 72
23 l38 -53 3 38 c2 21 -2 45 -8 52 -9 11 -5 14 22 18 72 9 68 10 68 -38z m230
20 c0 -19 5 -25 23 -25 28 0 47 -17 47 -43 0 -15 5 -18 23 -13 12 3 28 6 35 6
6 0 12 7 12 16 0 12 -7 15 -25 12 -35 -7 -42 10 -9 18 38 10 58 -7 64 -51 3
-21 11 -40 19 -43 11 -4 13 6 9 46 l-5 51 41 -1 c51 0 66 -12 66 -52 0 -18 5
-37 12 -44 9 -9 7 -12 -9 -12 -18 0 -22 7 -25 43 -2 34 -7 42 -23 42 -17 0
-20 -6 -19 -42 l1 -43 -72 0 c-42 0 -76 5 -83 12 -9 9 -15 9 -24 0 -16 -16
-78 -15 -83 1 -2 6 -5 42 -7 80 -4 59 -2 67 14 67 13 0 18 -8 18 -25z m640 10
c0 -8 -7 -15 -15 -15 -8 0 -15 7 -15 15 0 8 7 15 15 15 8 0 15 -7 15 -15z
m535 6 c7 -12 -12 -24 -25 -16 -11 7 -4 25 10 25 5 0 11 -4 15 -9z m165 -59
c0 -40 5 -73 12 -80 10 -10 -14 -12 -106 -11 -87 0 -115 4 -107 12 15 15 14
70 -1 85 -9 9 -7 12 10 12 19 0 22 -5 22 -43 0 -52 9 -65 24 -35 6 12 22 25
34 28 31 7 28 26 -4 23 -33 -3 -26 21 8 25 31 4 45 -13 50 -58 2 -23 8 -35 18
-35 19 0 27 110 9 131 -9 11 -7 14 10 14 19 0 21 -5 21 -68z m545 59 c7 -12
-12 -24 -25 -16 -11 7 -4 25 10 25 5 0 11 -4 15 -9z m-1295 -23 c0 -17 -3 -19
-12 -10 -7 7 -22 12 -35 12 -18 0 -23 -6 -23 -25 0 -20 5 -25 25 -25 14 0 25
-4 25 -10 0 -5 -12 -10 -26 -10 -23 0 -26 -3 -22 -30 4 -28 2 -30 -26 -30 -23
0 -27 3 -18 12 7 7 12 35 12 63 0 28 -5 56 -12 63 -9 9 2 12 50 12 57 0 62 -2
62 -22z m917 7 c3 -9 2 -19 -2 -23 -4 -4 -10 -1 -12 6 -3 6 -16 12 -29 12 -37
0 -29 -28 12 -45 35 -14 38 -14 51 5 24 34 78 24 85 -15 2 -17 -3 -21 -35 -23
-46 -4 -45 -26 1 -30 18 -2 30 -8 27 -13 -9 -14 -57 -11 -75 6 -15 14 -18 14
-30 0 -7 -9 -29 -15 -51 -15 -32 0 -39 3 -39 20 0 11 5 20 10 20 6 0 10 -5 10
-11 0 -14 53 -7 58 9 2 7 -12 19 -32 27 -20 9 -36 17 -36 19 0 3 -3 11 -6 19
-3 8 2 22 11 31 21 21 74 21 82 1z m-1569 -42 c5 -10 12 -35 15 -56 l6 -38
-47 3 c-40 3 -47 6 -50 26 -3 18 2 23 27 28 36 8 43 36 9 34 -36 -3 -44 0 -28
10 24 15 58 12 68 -7z m472 2 c19 -23 4 -45 -31 -45 -41 0 -33 -24 9 -28 39
-4 32 -22 -8 -22 -35 0 -60 23 -60 55 0 47 62 74 90 40z m232 -32 c2 -29 8
-48 17 -51 11 -4 13 6 9 46 l-5 51 41 -1 c51 0 66 -12 66 -53 0 -41 10 -51 24
-23 6 12 22 25 34 28 31 7 28 26 -4 23 -33 -3 -26 21 8 25 31 4 45 -13 50 -58
2 -23 8 -35 18 -35 19 0 26 60 10 80 -10 12 -3 14 42 12 l53 -2 3 -40 c2 -22
8 -45 14 -52 8 -10 5 -13 -11 -13 -18 0 -21 6 -21 46 0 41 -2 45 -22 42 -27
-4 -37 -50 -17 -74 10 -13 -2 -14 -94 -13 l-106 1 -3 41 c-2 34 -7 42 -23 42
-17 0 -20 -6 -19 -42 l1 -43 -51 0 -51 0 0 55 c0 45 3 55 17 55 13 0 18 -11
20 -47z m477 22 c3 -17 1 -18 -13 -6 -24 20 -48 6 -44 -26 2 -22 9 -29 31 -31
31 -4 27 -22 -5 -22 -28 0 -58 28 -58 53 0 50 80 79 89 32z m639 0 c0 -31 6
-40 22 -30 7 4 10 18 7 31 -4 23 -1 24 44 24 l49 0 0 -43 c0 -24 5 -48 12 -55
9 -9 4 -12 -22 -12 -26 0 -31 3 -22 12 15 15 16 74 2 83 -17 10 -35 -11 -50
-55 -7 -22 -19 -40 -26 -40 -7 0 -20 20 -30 45 -13 34 -22 45 -38 45 -28 0
-46 -18 -46 -45 0 -12 5 -26 12 -33 9 -9 4 -12 -22 -12 -26 0 -31 3 -22 12 15
15 16 70 1 85 -8 8 9 11 59 12 68 1 70 0 70 -24z m231 0 c3 -17 1 -18 -13 -6
-24 20 -48 6 -44 -26 2 -22 9 -29 31 -31 31 -4 27 -22 -5 -22 -28 0 -58 28
-58 53 0 50 80 79 89 32z m106 9 c23 -24 13 -39 -29 -42 -45 -4 -44 -26 2 -30
39 -4 33 -22 -7 -22 -35 0 -51 17 -51 55 0 17 5 36 12 43 17 17 54 15 73 -4z
m95 1 c0 -11 -7 -14 -25 -9 -33 8 -32 -9 1 -24 18 -9 24 -19 22 -35 -2 -18 -9
-22 -37 -22 -19 0 -36 6 -38 12 -3 9 4 11 26 7 38 -8 43 12 6 26 -24 9 -34 38
-18 53 13 14 63 7 63 -8z m-2390 -182 c0 -14 -2 -15 -9 -5 -4 8 -19 12 -32 10
-20 -2 -24 -9 -24 -38 0 -31 3 -35 28 -38 19 -2 27 1 27 12 0 9 -6 16 -12 17
-10 0 -10 2 0 6 7 3 19 -1 25 -9 10 -13 16 -13 37 -2 l24 13 -24 10 -25 11 25
-3 c20 -2 26 -8 28 -33 l3 -32 -66 0 c-59 0 -67 2 -81 24 -15 22 -15 26 0 49
20 31 76 36 76 8z m600 8 c0 -5 -10 -7 -21 -4 -20 6 -21 3 -18 -41 3 -27 0
-46 -6 -46 -6 0 -9 19 -6 46 3 44 2 47 -18 41 -11 -3 -21 -1 -21 4 0 5 20 9
45 9 25 0 45 -4 45 -9z m143 -11 c3 -11 10 -20 15 -20 6 0 14 9 17 20 3 11 11
20 16 20 6 0 1 -16 -11 -35 -12 -20 -19 -42 -16 -50 3 -9 0 -15 -8 -15 -9 0
-12 7 -9 21 4 12 -3 32 -16 50 -16 21 -18 29 -7 29 7 0 16 -9 19 -20z m407 10
c0 -5 -13 -7 -30 -3 -26 5 -30 3 -30 -16 0 -15 7 -21 23 -22 22 -2 22 -2 -1
-6 -18 -3 -23 -10 -19 -24 3 -11 0 -19 -6 -19 -8 0 -12 19 -12 50 l0 50 38 0
c20 0 37 -4 37 -10z m492 -40 c2 -29 -1 -50 -7 -50 -5 0 -10 23 -10 50 0 65
12 65 17 0z m128 41 c0 -4 -11 -6 -25 -3 -20 3 -25 0 -25 -17 0 -13 7 -21 18
-22 15 -1 15 -2 -1 -6 -13 -3 -17 -11 -14 -24 3 -11 0 -19 -6 -19 -8 0 -12 19
-12 50 0 50 0 50 33 50 17 0 32 -4 32 -9z m272 -41 c3 -49 2 -50 -25 -50 -15
0 -30 7 -33 15 -4 9 -19 15 -35 15 -37 0 -38 -17 -1 -23 l27 -4 -28 -2 c-16 0
-30 5 -33 14 -4 9 -19 15 -35 15 -36 0 -38 -17 -4 -23 23 -4 23 -4 -2 -3 -23
1 -29 6 -31 29 -4 31 20 47 47 30 11 -7 21 -7 33 1 13 8 23 8 38 -1 12 -8 21
-9 25 -3 3 6 15 10 27 10 14 0 18 5 14 15 -3 8 -1 15 3 15 5 0 11 -23 13 -50z
m-1930 -7 c-3 -15 1 -29 9 -34 11 -7 11 -9 -2 -9 -17 0 -30 52 -21 80 8 22 19
-9 14 -37z m86 5 c3 -13 -3 -18 -22 -18 -32 0 -34 -17 -3 -23 19 -5 19 -5 -3
-4 -26 2 -37 25 -26 53 8 21 50 14 54 -8z m32 2 c0 -11 5 -20 10 -20 6 0 10
-7 10 -15 0 -21 -17 -19 -23 3 -2 9 -8 25 -12 35 -4 10 -3 17 4 17 6 0 11 -9
11 -20z m64 -11 c4 6 4 16 1 21 -3 6 1 10 9 10 13 0 14 -4 4 -27 -14 -34 -28
-51 -28 -36 0 6 -7 19 -16 27 -8 9 -12 21 -8 27 4 8 11 4 19 -11 8 -15 15 -19
19 -11z m88 -4 c4 -33 2 -35 -24 -35 -20 0 -28 5 -27 18 0 10 3 12 6 5 6 -15
33 -17 33 -3 0 6 -6 10 -12 11 -10 0 -10 2 0 6 17 7 15 21 -5 26 -14 4 -13 5
3 6 18 1 23 -6 26 -34z m41 14 c6 -23 27 -17 27 7 0 8 4 14 9 14 11 0 -14 -68
-31 -85 -6 -7 -7 -4 -3 7 4 9 -1 30 -10 47 -8 17 -11 31 -6 31 5 0 11 -9 14
-21z m242 -14 c0 -25 -4 -31 -27 -33 -19 -2 -28 2 -33 18 -8 27 12 52 39 48
16 -2 21 -10 21 -33z m206 19 c17 -21 0 -49 -32 -49 -24 0 -36 23 -25 51 7 19
40 18 57 -2z m29 -14 c0 -24 4 -30 21 -30 18 0 21 5 17 30 -3 17 -1 30 3 30 4
0 9 -16 11 -35 4 -35 3 -36 -26 -33 -25 2 -31 8 -37 36 -4 17 -3 32 2 32 5 0
9 -13 9 -30z m105 16 c-12 -8 -16 -20 -12 -35 3 -12 0 -21 -6 -21 -7 0 -12 15
-12 35 0 30 3 35 24 35 23 0 24 -1 6 -14z m167 -21 c2 -20 0 -35 -7 -35 -5 0
-10 16 -10 35 0 19 3 35 6 35 4 0 9 -16 11 -35z m89 -2 c4 -18 3 -33 -2 -33
-5 0 -9 14 -9 31 0 24 -4 30 -17 27 -12 -2 -18 -13 -18 -31 1 -15 -4 -27 -10
-27 -5 0 -10 16 -10 35 0 34 2 36 30 33 24 -2 30 -9 36 -35z m71 2 c4 -33 2
-35 -24 -35 -33 0 -39 25 -8 35 25 8 26 22 3 28 -14 4 -13 5 3 6 18 1 23 -6
26 -34z m90 0 c2 -19 0 -35 -4 -35 -4 0 -8 14 -8 30 0 20 -5 30 -15 30 -10 0
-15 -10 -15 -30 0 -42 -15 -38 -17 5 -1 32 1 35 27 35 24 0 28 -4 32 -35z m78
27 c0 -5 -10 -8 -22 -8 -33 1 -31 -36 2 -45 l25 -7 -27 -1 c-31 -1 -47 31 -28
54 13 16 50 21 50 7z m32 -27 c2 -20 0 -35 -7 -35 -5 0 -10 16 -10 35 0 19 3
35 6 35 4 0 9 -16 11 -35z m70 0 c4 -33 2 -35 -24 -35 -20 0 -28 5 -27 18 0
10 3 12 6 5 6 -15 33 -17 33 -3 0 6 -6 10 -12 11 -10 0 -10 2 0 6 17 7 15 21
-5 26 -14 4 -13 5 3 6 18 1 23 -6 26 -34z m213 21 c-12 -8 -16 -20 -12 -35 3
-12 0 -21 -6 -21 -7 0 -12 15 -12 35 0 30 3 35 24 35 23 0 24 -1 6 -14z m306
-2 c17 -21 0 -49 -32 -49 -24 0 -36 23 -25 51 7 19 40 18 57 -2z m120 -21 c4
-18 3 -33 -2 -33 -5 0 -9 14 -9 30 0 21 -5 30 -16 30 -12 0 -15 -7 -12 -30 3
-16 1 -30 -4 -30 -4 0 -8 14 -8 30 0 21 -5 30 -16 30 -12 0 -15 -7 -12 -30 3
-17 0 -30 -6 -30 -6 0 -11 16 -11 35 l0 36 45 -3 c41 -3 45 -5 51 -35z"/>
<path d="M2474 3876 c-12 -31 0 -51 31 -51 27 0 30 3 30 30 0 25 -4 30 -28 33
-17 2 -29 -2 -33 -12z"/>
<path d="M1920 3005 c0 -32 3 -36 23 -33 17 2 22 10 22 33 0 23 -5 31 -22 33
-20 3 -23 -1 -23 -33z"/>
<path d="M2020 2980 c0 -5 9 -10 20 -10 11 0 20 5 20 10 0 6 -9 10 -20 10 -11
0 -20 -4 -20 -10z"/>
<path d="M3140 2980 c0 -5 6 -10 14 -10 8 0 18 5 21 10 3 6 -3 10 -14 10 -12
0 -21 -4 -21 -10z"/>
<path d="M3470 3030 c0 -5 9 -10 20 -10 11 0 20 5 20 10 0 6 -9 10 -20 10 -11
0 -20 -4 -20 -10z"/>
<path d="M1800 2980 c0 -5 9 -10 20 -10 11 0 20 5 20 10 0 6 -9 10 -20 10 -11
0 -20 -4 -20 -10z"/>
<path d="M2270 3030 c0 -5 9 -10 20 -10 11 0 20 5 20 10 0 6 -9 10 -20 10 -11
0 -20 -4 -20 -10z"/>
<path d="M2740 2980 c0 -5 6 -10 14 -10 8 0 18 5 21 10 3 6 -3 10 -14 10 -12
0 -21 -4 -21 -10z"/>
<path d="M3960 3030 c0 -5 9 -10 20 -10 11 0 20 5 20 10 0 6 -9 10 -20 10 -11
0 -20 -4 -20 -10z"/>
<path d="M1745 2800 c-3 -5 3 -10 14 -10 12 0 21 5 21 10 0 6 -6 10 -14 10 -8
0 -18 -4 -21 -10z"/>
<path d="M3575 2830 c-3 -5 3 -10 14 -10 12 0 21 5 21 10 0 6 -6 10 -14 10 -8
0 -18 -4 -21 -10z"/>
<path d="M3645 2830 c-3 -5 3 -10 14 -10 12 0 21 5 21 10 0 6 -6 10 -14 10 -8
0 -18 -4 -21 -10z"/>
<path d="M3717 2833 c-15 -15 -7 -43 13 -43 15 0 20 7 20 25 0 24 -18 34 -33
18z"/>
<path d="M1875 2830 c-3 -5 3 -10 14 -10 12 0 21 5 21 10 0 6 -6 10 -14 10 -8
0 -18 -4 -21 -10z"/>
<path d="M2334 2825 c-4 -9 -2 -21 4 -27 15 -15 44 -1 40 19 -4 23 -36 29 -44
8z"/>
<path d="M2540 2815 c0 -18 5 -25 19 -25 24 0 33 13 25 34 -10 27 -44 20 -44
-9z"/>
<path d="M3015 2800 c-3 -5 1 -10 9 -10 9 0 16 5 16 10 0 6 -4 10 -9 10 -6 0
-13 -4 -16 -10z"/>
<path d="M3790 2815 c0 -18 5 -25 19 -25 24 0 33 13 25 34 -10 27 -44 20 -44
-9z"/>
</g>
</svg>
